<svg preserveAspectRatio="none" width="100%" height="100%" overflow="visible" style="display: block;" viewBox="0 0 26.1115 37.617" fill="none" xmlns="http://www.w3.org/2000/svg">
<g id="Group">
<path id="Vector" d="M0.0977312 0L0.370927 0.00100132C6.1139 0.0220505 10.7588 4.70108 10.7377 10.4441L10.678 26.733L10.4048 26.732C4.66184 26.7109 0.0169798 22.0319 0.038029 16.2889L0.0977312 0Z" fill="#1b1b1b"/>
<path id="Vector_2" d="M15.6918 10.8614L15.7065 10.8614C21.4495 10.8825 26.0943 15.5615 26.0733 21.3045L26.0136 37.5934L25.9989 37.5933C20.2559 37.5723 15.611 32.8932 15.6321 27.1503L15.6918 10.8614Z" fill="#1b1b1b"/>
<path id="Vector_3" d="M20.9235 8.21474C23.1916 8.21474 25.0302 6.37608 25.0302 4.10797C25.0302 1.83987 23.1916 0.00120377 20.9235 0.00120377C18.6554 0.00120377 16.8167 1.83987 16.8167 4.10797C16.8167 6.37608 18.6554 8.21474 20.9235 8.21474Z" fill="#1b1b1b"/>
<path id="Vector_4" d="M5.38889 37.617C7.657 37.617 9.49566 35.7784 9.49566 33.5103C9.49566 31.2422 7.657 29.4035 5.38889 29.4035C3.12079 29.4035 1.28212 31.2422 1.28212 33.5103C1.28212 35.7784 3.12079 37.617 5.38889 37.617Z" fill="#1b1b1b"/>
</g>
</svg>
