<svg width="89" height="129" viewBox="0 0 89 129" fill="none" xmlns="http://www.w3.org/2000/svg">
<path d="M0.333054 0L1.26305 0.00340862C20.8129 0.075063 36.6246 16.0031 36.553 35.553L36.3498 91.0026L35.4198 90.9992C15.8699 90.9276 0.0581648 74.9995 0.129819 55.4496L0.333054 0Z" fill="#1b1b1b"/>
<path d="M53.4172 36.9743L53.4672 36.9745C73.017 37.0461 88.8287 52.9742 88.7571 72.5241L88.5539 127.974L88.5039 127.974C68.954 127.902 53.1423 111.974 53.2139 92.4239L53.4172 36.9743Z" fill="#1b1b1b"/>
<path d="M71.2183 27.9639C78.9392 27.9639 85.1983 21.7049 85.1983 13.9839C85.1983 6.263 78.9392 0.00393677 71.2183 0.00393677C63.4974 0.00393677 57.2383 6.263 57.2383 13.9839C57.2383 21.7049 63.4974 27.9639 71.2183 27.9639Z" fill="#1b1b1b"/>
<path d="M18.3383 128.054C26.0593 128.054 32.3183 121.795 32.3183 114.074C32.3183 106.353 26.0593 100.094 18.3383 100.094C10.6174 100.094 4.35832 106.353 4.35832 114.074C4.35832 121.795 10.6174 128.054 18.3383 128.054Z" fill="#1b1b1b"/>
</svg>
