<svg preserveAspectRatio="none" width="100%" height="100%" overflow="visible" style="display: block;" viewBox="0 0 47.3769 47.3769" fill="none" xmlns="http://www.w3.org/2000/svg">
<g id="item">
<rect width="47.3769" height="47.3769" rx="23.6885" fill="var(--fill-0, white)"/>
<path id="Vector" fill-rule="evenodd" clip-rule="evenodd" d="M30.3212 16.9371C28.5445 15.1605 26.1757 14.213 23.6884 14.213C18.4769 14.213 14.213 18.4769 14.213 23.6883C14.213 25.3465 14.6868 27.0047 15.5159 28.426L14.213 33.1637L19.1876 31.8609C20.6089 32.5715 22.1487 33.0453 23.6884 33.0453C28.8999 33.0453 33.1638 28.7814 33.1638 23.5699C33.1638 21.0826 32.0978 18.7138 30.3212 16.9371ZM23.6884 31.5055C22.2671 31.5055 20.8458 31.1502 19.6614 30.4396L19.4245 30.3211L16.4634 31.1502L17.2925 28.3076L17.0556 27.9523C16.2265 26.6494 15.8712 25.2281 15.8712 23.8068C15.8712 19.5429 19.4245 15.9896 23.6884 15.9896C25.8204 15.9896 27.7155 16.8187 29.2552 18.24C30.795 19.7797 31.5056 21.6748 31.5056 23.8068C31.5056 27.9523 28.0708 31.5055 23.6884 31.5055ZM27.9523 25.5834C27.7155 25.465 26.531 24.8728 26.2942 24.8728C26.0573 24.7543 25.9388 24.7543 25.8204 24.9912C25.7019 25.2281 25.2282 25.7019 25.1097 25.9387C24.9913 26.0572 24.8728 26.0572 24.6359 26.0572C24.399 25.9387 23.6884 25.7019 22.7409 24.8728C22.0302 24.2806 21.5564 23.4515 21.438 23.2146C21.3196 22.9777 21.438 22.8592 21.5565 22.7408C21.6749 22.6224 21.7933 22.5039 21.9118 22.3855C22.0302 22.267 22.0302 22.1486 22.1487 22.0301C22.2671 21.9117 22.1487 21.7933 22.1487 21.6748C22.1487 21.5564 21.6749 20.372 21.438 19.8982C21.3196 19.5429 21.0827 19.5429 20.9642 19.5429C20.8458 19.5429 20.7273 19.5429 20.4904 19.5429C20.372 19.5429 20.1351 19.5429 19.8982 19.7797C19.6613 20.0166 19.0692 20.6088 19.0692 21.7933C19.0692 22.9777 19.8982 24.0437 20.0167 24.2806C20.1351 24.399 21.6749 26.8863 24.0437 27.8338C26.0572 28.6629 26.4126 28.426 26.8864 28.426C27.3601 28.426 28.3077 27.8338 28.4261 27.3601C28.663 26.7678 28.663 26.2941 28.5445 26.2941C28.4261 25.7019 28.1892 25.7019 27.9523 25.5834Z" fill="var(--fill-0, black)"/>
</g>
</svg>
